<svg width="86" height="60" viewBox="0 0 86 60" fill="none" xmlns="http://www.w3.org/2000/svg">
<path d="M35.7881 6.54547C38.5617 3.66517 42.423 1.87872 46.6936 1.87872C52.3706 1.87872 57.3235 5.03376 59.9612 9.7175C62.2533 8.69682 64.7905 8.129 67.4598 8.129C77.6989 8.129 86 16.4746 86 26.7688C86 37.0642 77.6989 45.4098 67.4598 45.4098C66.2334 45.4105 65.01 45.289 63.8079 45.0471C61.4852 49.1765 57.059 51.9665 51.9786 51.9665C49.8518 51.9665 47.8403 51.477 46.0493 50.6064C43.6946 56.1265 38.2088 59.997 31.8151 59.997C25.1569 59.997 19.4823 55.798 17.3042 49.9091C16.3523 50.1106 15.3661 50.2156 14.3542 50.2156C6.42676 50.2157 0 43.7444 0 35.7603C0 30.4099 2.8875 25.7383 7.17769 23.2389C6.29444 21.2133 5.80315 18.9776 5.80315 16.6271C5.80315 7.44526 13.2822 0.00210571 22.507 0.00210571C27.9231 0.00210571 32.7364 2.56864 35.7881 6.54547Z" fill="#898FEB"/>
</svg>
